<?xml version="1.0" encoding="UTF-8"?>
<svg xmlns="http://www.w3.org/2000/svg" xmlns:xlink="http://www.w3.org/1999/xlink" width="512" height="512" viewBox="0 0 57 60" version="1.1"><!-- Generator: Sketch 51.3 (57544) - http://www.bohemiancoding.com/sketch --><title>020 - Family Tree</title><desc>Created with Sketch.</desc><defs/><g id="Page-1" stroke="none" stroke-width="1" fill="none" fill-rule="evenodd"><g id="020---Family-Tree" fill="#000000" fill-rule="nonzero"><path d="M53.08,29 L52.0624,29 C52.0250603,28.457085 51.7705705,27.9521067 51.3564,27.5991 C47.9551,24.7896 42.5879,21.5449 36.3232,22.0908 C35.1504277,22.1943814 33.9915028,22.4189078 32.8649,22.7608 C33.4536835,21.8467543 33.8296055,20.8121146 33.9649,19.7333 C34.9389142,18.8778327 36.0545742,18.1986706 37.2618,17.7263 C37.3268625,17.709374 37.3900496,17.6859217 37.4504,17.6563 C39.2483464,16.9819049 41.176629,16.7272906 43.088,16.9119 C43.3656802,18.5198456 44.3628662,19.9127754 45.7955,20.6939 C47.1027838,21.2831003 48.532711,21.54889 49.9644,21.4688 C51.0233935,21.4650314 52.0810106,21.3921096 53.1305,21.2505 C53.4330101,21.2072992 53.6992128,21.0282724 53.8533125,20.7643937 C54.0074122,20.5005151 54.0325248,20.1806966 53.9215,19.896 C53.2445522,18.1612172 52.3341261,16.5268845 51.2154,15.0382 C53.3043,13.6915 54.8687,9.2543 55.0406,8.7525 C55.1395259,8.46331559 55.1007724,8.14476923 54.9353954,7.88773922 C54.7700185,7.63070922 54.4961787,7.46342087 54.192,7.4336 C53.6637,7.3818 48.9742,6.9683 46.8844,8.313 C44.8544,9.6191 43.9008,11.8687 44.4959,13.6536 C44.0842829,13.9298284 43.7387539,14.2935575 43.484,14.7188 C43.444,14.7878 43.4268,14.8642 43.3924,14.9352 C41.7343827,14.7654814 40.059625,14.8760254 38.4383,15.2622 C38.6594,14.1602 38.8858,12.7397 39.054,11.2927 C39.2885572,11.3423451 39.5274595,11.3686069 39.7672,11.3711 C40.024584,11.3707954 40.2813275,11.3454426 40.5338,11.2954 C41.944619,10.9702107 43.1709057,10.1031175 43.9478,8.8814 C45.3443,6.8214 45.0191,2.1214 44.9771,1.5914 C44.9530724,1.28675026 44.791062,1.00980982 44.5372777,0.839567937 C44.2834933,0.669326058 43.9657961,0.624472335 43.6748,0.7178 C41.6153783,1.3551695 39.68621,2.35490452 37.978,3.67 C36.5264202,2.22166713 34.8495505,1.01834518 33.0127,0.1069 C32.7396416,-0.0303276921 32.4188515,-0.0352889117 32.14168,0.0934291325 C31.8645086,0.222147177 31.661329,0.470439253 31.59,0.7676 C31.467,1.2832 30.4152,5.8721 31.4611,8.127 C32.1920603,9.91809965 33.8752645,11.1399301 35.8047,11.28 C36.2409549,11.2775999 36.6723812,11.1885069 37.0739,11.0179 C36.8920185,12.6911316 36.6087646,14.3517838 36.2257,15.9907 C34.7987122,16.5837446 33.4915782,17.4315604 32.3682,18.4927 C31.5442,19.0301 29.3489,20.2761 28,20.2761 C26.6511,20.2761 24.4539,19.0289 23.6306,18.4919 C22.5069264,17.4327635 21.2005765,16.5860772 19.7749,15.9929 C19.3913061,14.3533208 19.1078489,12.6919166 18.9261,11.0179 C19.3276188,11.1885069 19.7590451,11.2775999 20.1953,11.28 C22.124906,11.1400193 23.8082553,9.91802349 24.5391,8.1267 C25.585,5.8721 24.5332,1.2832 24.41,0.7676 C24.338671,0.470439253 24.1354914,0.222147177 23.85832,0.0934291325 C23.5811485,-0.0352889117 23.2603584,-0.0303276921 22.9873,0.1069 C21.1507839,1.01804841 19.4741602,2.2209582 18.0227,3.6688 C16.3140741,2.35423728 14.384702,1.35492583 12.3252,0.7178 C12.0341685,0.624326862 11.7163689,0.669095718 11.4624865,0.839331632 C11.208604,1.00956755 11.0465253,1.28657167 11.0225,1.5913 C10.9805,2.1206 10.6553,6.8213 12.0488,8.8755 C12.8255134,10.0997533 14.0530663,10.9689196 15.4658,11.2949 C15.7163617,11.3445764 15.9711616,11.3697617 16.2266,11.3701 C16.4682668,11.367459 16.7090515,11.3404557 16.9453,11.2895 C17.1135,12.7379 17.3403,14.1601 17.5615,15.2629 C15.9721291,14.8830705 14.3308598,14.7688611 12.7042,14.9249 C12.6709,14.8591 12.6458,14.7831 12.6084,14.7236 C12.3561396,14.2960223 12.010282,13.9311556 11.5968,13.6564 C12.1942,11.871 11.2412,9.6194 9.21,8.3125 C7.12,6.9668 2.4326,7.3809 1.9023,7.4331 C1.59824453,7.4629598 1.32452028,7.63017635 1.1591633,7.88707789 C0.993806315,8.14397944 0.954960349,8.46237751 1.0537,8.7515 C1.2256,9.2534 2.79,13.6938 4.8809,15.0391 L4.8817,15.0396 C3.76207911,16.527472 2.84949023,18.1603629 2.1689,19.8936 C2.05679765,20.1783529 2.08125151,20.4987602 2.2352691,20.7632025 C2.38928669,21.0276449 2.65591032,21.2070066 2.9589,21.25 C4.00899242,21.3919424 5.0672633,21.4648655 6.1269,21.4683 C7.56065902,21.5477958 8.99258112,21.2823774 10.3026,20.6943 C11.7450996,19.9169431 12.7474185,18.5166127 13.0181,16.9005 C14.8864385,16.7349582 16.7681503,16.9892972 18.5255,17.6449 C18.5959732,17.6813221 18.6705773,17.7091224 18.7477,17.7277 C19.95168,18.1995984 21.0639661,18.8781989 22.0344,19.7329 C22.1680762,20.8006796 22.5384882,21.8251376 23.1186,22.7315 C22.0222866,22.4057386 20.8959828,22.1910912 19.7567,22.0908 C13.4785,21.5469 8.125,24.79 4.7246,27.5986 C4.30996566,27.95156 4.05512683,28.4567674 4.0177,29 L3,29 C1.34389967,29.0018187 0.00181871114,30.3438997 0,32 L0,57 C0.00181871114,58.6561003 1.34389967,59.9981813 3,60 L26.5,60 C27.0447325,59.9951029 27.5775771,59.8401628 28.04,59.5522 C28.5024356,59.8401342 29.035272,59.995072 29.58,60 L53.08,60 C54.7361003,59.9981813 56.0781813,58.6561003 56.08,57 L56.08,32 C56.0781813,30.3438997 54.7361003,29.0018187 53.08,29 Z M46.8018,18.9653 C45.3955,18.1479 44.668,16.6631 45.2109,15.728 C45.331511,15.5290043 45.5003923,15.3636657 45.7019,15.2473 C46.3005039,15.6814162 47.0093269,15.9380578 47.7471,15.9878 C47.8623,15.9961 47.9785,16 48.0947,16 C48.4859878,15.9939241 48.8754107,15.9446929 49.2559,15.8532 C50.1995938,16.9079191 50.966617,18.108229 51.5273,19.4077 C49.8242,19.5317 47.708,19.4941 46.8018,18.9653 Z M47.9668,9.9941 C49.2470305,9.46693973 50.631308,9.24112516 52.0127,9.3341 C52.2363,9.3341 52.458,9.3375 52.6727,9.3441 C52.0096,10.9192 51.0164,12.7884 50.1316,13.3577 C49.4704694,13.8010489 48.6858395,14.0234635 47.8904,13.993 C47.3532675,13.9844039 46.8500689,13.7287466 46.5264,13.3 C45.94,12.3882 46.6,10.874 47.9668,9.9941 Z M43.0381,3.0752 C43.0537,4.7827 42.8809,6.8901 42.2891,7.7642 C41.8036322,8.54306534 41.0365755,9.10478323 40.1475,9.3325 C39.7460629,9.42838385 39.3230122,9.36224064 38.97,9.1484 C38.9556,9.1384 38.9422,9.1272 38.9275,9.1168 C39.0384543,8.86053511 39.124322,8.59412416 39.1839,8.3213 C39.3663556,7.3814157 39.3025203,6.41031244 38.9986,5.5024 L39.0101,5.4873 C39.6318,4.63 41.4844,3.6953 43.0381,3.0752 Z M36.3535,9.1626 C35.3662,9.624 33.96,8.7583 33.2754,7.2847 C32.832,6.3301 32.9922,4.2188 33.2754,2.5332 C34.7441,3.4038 36.459,4.6426 36.9033,5.5996 C37.2518124,6.31525234 37.3649788,7.12281831 37.2266,7.9067 C37.144636,8.43750437 36.8225067,8.9008672 36.3535,9.1626 Z M22.7256,2.5337 C23.0078,4.2192 23.168,6.3301 22.7246,7.2842 C22.041,8.7583 20.6328,9.6216 19.6465,9.1626 C19.1774933,8.9008672 18.855364,8.43750437 18.7734,7.9067 C18.6351079,7.12294752 18.7482723,6.31553534 19.0967,5.6 C19.54,4.6455 21.2549,3.4058 22.7256,2.5337 Z M15.8525,9.3325 C14.9615497,9.10394979 14.1932762,8.54016708 13.708,7.7588 C13.118,6.8888 12.9453,4.7822 12.9619,3.0752 C14.5146,3.6938 16.3633,4.624 16.9719,5.4609 C16.9801947,5.47533818 16.9906489,5.4884228 17.0029,5.4997 C16.6982202,6.4083719 16.634037,7.38045722 16.8166,8.3213 C16.8761963,8.59421638 16.9620631,8.86072513 17.073,9.1171 L17.0412,9.1411 C16.6862062,9.36049327 16.2584179,9.42937413 15.8525,9.3325 Z M3.4219,9.3438 C5.126,9.293 7.2432,9.4238 8.1279,9.9938 C9.4951,10.8738 10.1543,12.3879 9.5684,13.299 C8.9795,14.2106 7.3291,14.2365 5.9629,13.3571 C5.0781,12.7876 4.084,10.9189 3.4219,9.3438 Z M9.2979,18.9653 C8.3879,19.4946 6.2705,19.5313 4.5645,19.4077 C5.12928492,18.1067982 5.90014561,16.9054793 6.8474,15.85 C7.22190411,15.9376272 7.60472721,15.9848306 7.9893,15.9908 C8.84702438,16.000679 9.6861133,15.7404229 10.3877,15.2469 C10.5963362,15.3678202 10.7699754,15.5408736 10.8916,15.7491 C10.9509244,15.8520218 10.9920602,15.964401 11.0132,16.0813 C11.0149,16.102 11.0068,16.1213 11.0098,16.1413 C11.0137,16.1691 11.0306,16.1904 11.0369,16.2174 C11.0263646,17.3893616 10.3525474,18.4541014 9.2979,18.9653 Z M27.999,38.8062 C26.539,37.7925 24,35.5562 24,33.2762 C24,31.0062 26.541,28.763 28.001,27.7462 C29.461,28.7599 32,30.9962 32,33.2762 C32,35.5464 29.459,37.7891 27.999,38.8062 Z M24.6211,21.3286 C25.6697294,21.8747394 26.8202903,22.1973078 28,22.2759 C29.1801823,22.1968515 30.3311168,21.8737385 31.38,21.327 C30.6757147,22.5212559 29.8008945,23.6063253 28.7832,24.5479 C28.5332,24.6934 28.286,24.8479 28.0401,25.0051 C27.7323,24.8079 27.4211,24.62 27.1065,24.4414 C26.1339247,23.5275449 25.2969913,22.479341 24.6211,21.3286 Z M19.585,24.083 C21.7954946,24.2943342 23.938091,24.9620419 25.8773,26.0439 C26.0442,26.2017 26.2024,26.3463 26.3518,26.4794 C24.7439,27.6964 22,30.2172 22,33.2759 C22,36.3131 24.7053,38.8198 26.3177,40.0459 C24.7115,41.399 22,44.11 22,47 C22,47.5522847 22.4477153,48 23,48 C23.5522847,48 24,47.5522847 24,47 C24,44.8979 26.5137,42.4458 28.001,41.2539 C29.4883,42.4434 32,44.8916 32,47 C32,47.5522847 32.4477153,48 33,48 C33.5522847,48 34,47.5522847 34,47 C34,44.11 31.2885,41.399 29.6823,40.0464 C31.2947,38.82 34,36.3131 34,33.2759 C34,30.2172 31.2561,27.6964 29.6482,26.4794 C29.76,26.3799 29.8789,26.2704 30.001,26.1569 C31.9929728,25.0102567 34.2072428,24.3031265 36.4951,24.083 C42.0801,23.603 46.9688,26.5684 50.0801,29.1602 L50.0771,53.9956 C43.2677,48.7887 35.4655,48.7451 28.04,53.8207 C20.6155,48.7452 12.8123,48.79 6,53.99 L6,30 L5.9971,29.1411 C9.1113,26.5684 13.9951,23.6035 19.585,24.083 Z M46.436,54 L31.606,54 C36.2002819,51.3728514 41.8417181,51.3728514 46.436,54 Z M24.4736,54 L9.6475,54 C14.2407259,51.3741151 19.8803741,51.3741151 24.4736,54 Z M54.08,57 C54.0794488,57.5520563 53.6320563,57.9994488 53.08,58 L29.58,58 C29.2818544,58.0015815 28.9992575,57.8671308 28.8124,57.6348 C28.7878932,57.6125864 28.7622237,57.5916903 28.7355,57.5722 C28.703978,57.5130275 28.6498835,57.4691027 28.5855,57.4504 C28.52943,57.4124948 28.4694941,57.3806496 28.4067,57.3554 C28.1054696,57.2335171 27.7633847,57.2691119 27.4937,57.4504 C27.4182047,57.5118724 27.3427047,57.5733391 27.2672,57.6348 C27.08043,57.8670207 26.7980056,58.0014594 26.5,58 L3,58 C2.44792091,57.9995038 2.0004962,57.5520791 2,57 L2,32 C2.0004962,31.4479209 2.44792091,31.0004962 3,31 L4,31 L4,53.99 C3.99850392,55.0968101 4.89319623,55.9959758 6,56 L28,56 C28.0142,56 28.026,55.9926 28.04,55.9919 C28.054,55.9912 28.0659,56 28.08,56 L50.08,56 C51.1868038,55.9959758 52.0814961,55.0968101 52.08,53.99 L52.08,31 L53.08,31 C53.6320563,31.0005512 54.0794488,31.4479437 54.08,32 L54.08,57 Z" id="Shape"/><path d="M27,32.2759 L29,32.2759 C29.5522847,32.2759 30,31.8281847 30,31.2759 C30,30.7236153 29.5522847,30.2759 29,30.2759 L27,30.2759 C26.4477153,30.2759 26,30.7236153 26,31.2759 C26,31.8281847 26.4477153,32.2759 27,32.2759 Z" id="Shape"/><path d="M29,34.2759 L27,34.2759 C26.4477153,34.2759 26,34.7236153 26,35.2759 C26,35.8281847 26.4477153,36.2759 27,36.2759 L29,36.2759 C29.5522847,36.2759 30,35.8281847 30,35.2759 C30,34.7236153 29.5522847,34.2759 29,34.2759 Z" id="Shape"/></g></g></svg>
